# xmcd
#
# Track frame offsets:
#	150
#	16320
#	32920
#	48962
#	65325
#	80725
#	100365
#	114617
#	130962
#	147610
#	163252
#
# Disc length: 2381
#
# Revision: 1
# Processed by: cddbd v1.5.1PL0 Copyright (c) Steve Scherf et al.
# Submitted via: Audion 2.5.0 (http://www.panic.com/audion/)
# Normalized: r0:TRMNUM
#
DISCID=9f094b0b
DTITLE=LUTRICIA McNEAL - AIN'T THAT JUST THE WAY
DYEAR=1900
DGENRE=
TTITLE0=AIN'T THAT JUST THE WAY
TTITLE1=ALWAYS
TTITLE2=STRANDED
TTITLE3=WHATEVER MAKES YOU HAPPY
TTITLE4=SOMEONE LOVES YOU HONEY
TTITLE5=THE GREATEST LOVE YOU'LL NE<caron>
TTITLE6=MY SIDE OF TOWN
TTITLE7=DO'S ME GOOD
TTITLE8=LIFE IS FUNNY
TTITLE9=CROSSROADS - THE HEART IS A<caron>
TTITLE10=CLOSER
EXTD=
EXTT0=
EXTT1=
EXTT2=
EXTT3=
EXTT4=
EXTT5=
EXTT6=
EXTT7=
EXTT8=
EXTT9=
EXTT10=
PLAYORDER=
